<svg width="25" height="24" viewBox="0 0 25 24" fill="none" xmlns="http://www.w3.org/2000/svg">
<path d="M21.875 12.79C21.7112 14.4922 21.0457 16.1144 19.9565 17.4668C18.8673 18.8192 17.3995 19.8458 15.7247 20.4265C14.0499 21.0073 12.2375 21.1181 10.4995 20.7461C8.7615 20.3741 7.1698 19.5345 5.91067 18.3258C4.65154 17.117 3.77704 15.589 3.38951 13.9205C3.00197 12.252 3.11743 10.5121 3.72237 8.9043C4.32731 7.29651 5.39672 5.88737 6.80545 4.84175C8.21418 3.79614 9.90397 3.15731 11.6771 3C10.639 4.34827 10.1394 6.00945 10.2693 7.68141C10.3992 9.35338 11.1499 10.9251 12.3848 12.1106C13.6198 13.2961 15.2569 14.0168 16.9985 14.1415C18.7402 14.2662 20.4706 13.7866 21.875 12.79Z" stroke="#C2C5CC" stroke-width="4" stroke-linecap="round" stroke-linejoin="round"/>
</svg>
